<?xml version="1.0" standalone="no"?>
<!DOCTYPE svg PUBLIC "-//W3C//DTD SVG 20010904//EN"
 "http://www.w3.org/TR/2001/REC-SVG-20010904/DTD/svg10.dtd">
<svg version="1.0" xmlns="http://www.w3.org/2000/svg"
 width="1024.000000pt" height="1024.000000pt" viewBox="0 0 1024.000000 1024.000000"
 preserveAspectRatio="xMidYMid meet">
<metadata>
Created by potrace 1.16, written by Peter Selinger 2001-2019
</metadata>
<g transform="translate(0.000000,1024.000000) scale(0.100000,-0.100000)"
fill="#000000" stroke="none">
<path d="M0 5120 l0 -5120 5120 0 5120 0 0 5120 0 5120 -5120 0 -5120 0 0
-5120z m5514 2124 c249 -81 676 -225 856 -289 96 -34 198 -68 225 -74 l50 -13
117 56 c316 150 525 163 591 36 37 -72 -4 -169 -108 -252 -56 -46 -240 -144
-370 -199 l-60 -25 -48 -160 c-41 -135 -246 -773 -280 -871 -11 -33 -44 -52
-140 -83 -32 -10 -42 -9 -64 5 l-26 18 6 428 c4 236 5 429 3 429 -7 0 -203
-84 -451 -193 -651 -285 -1122 -487 -1138 -487 -24 0 -61 20 -167 90 -113 74
-173 102 -280 130 -80 22 -108 23 -487 28 l-403 4 0 -541 0 -541 1770 0 1770
0 0 150 0 150 -1142 2 -1143 3 -3 63 c-2 38 2 69 9 78 10 12 181 14 1145 14
l1134 0 0 449 0 449 25 30 c30 36 56 42 146 32 81 -9 127 -38 162 -103 l22
-42 3 -1055 c1 -580 0 -1065 -3 -1078 -3 -12 -14 -31 -25 -42 -18 -18 -34 -20
-149 -20 -115 0 -131 2 -155 21 l-26 20 0 165 0 164 -1770 0 -1770 0 0 -160
c0 -157 -1 -161 -25 -185 -23 -24 -30 -25 -150 -25 -126 0 -127 0 -156 29
l-29 29 0 1150 c0 831 3 1158 11 1183 24 71 90 119 163 119 112 0 186 -77 186
-195 l0 -55 411 0 c369 0 421 -2 507 -20 147 -30 249 -69 405 -157 64 -36 89
-40 127 -20 378 199 471 260 453 301 -2 6 -54 47 -114 91 -66 48 -109 87 -109
97 0 23 127 88 172 88 18 0 94 -28 175 -65 79 -36 154 -65 168 -65 23 0 168
71 380 187 118 65 113 62 95 73 -8 5 -196 127 -417 272 l-402 263 -1 37 c0 41
1 42 100 97 30 17 61 31 69 31 8 0 78 -21 155 -46z m-1550 -1645 c79 -14 203
-81 278 -149 75 -68 132 -168 143 -251 6 -40 3 -50 -18 -75 l-25 -29 -349 0
c-342 0 -349 0 -384 22 -46 29 -58 57 -74 173 -27 197 -28 236 -9 269 10 17
25 34 33 38 48 22 292 23 405 2z"/>
</g>
</svg>
