<?xml version="1.0" standalone="no"?>
<!DOCTYPE svg PUBLIC "-//W3C//DTD SVG 20010904//EN"
 "http://www.w3.org/TR/2001/REC-SVG-20010904/DTD/svg10.dtd">
<svg version="1.0" xmlns="http://www.w3.org/2000/svg"
 width="330.000000pt" height="369.000000pt" viewBox="0 0 330.000000 369.000000"
 preserveAspectRatio="xMidYMid meet">
<metadata>
Created by potrace 1.16, written by Peter Selinger 2001-2019
</metadata>
<g transform="translate(0.000000,369.000000) scale(0.100000,-0.100000)"
fill="#000000" stroke="none">
<path d="M1435 3633 c-44 -32 -126 -102 -183 -158 l-102 -100 0 -772 0 -772
-57 -11 c-32 -6 -87 -18 -123 -26 -36 -9 -96 -22 -135 -29 -38 -8 -113 -23
-165 -35 -52 -11 -158 -33 -234 -49 -100 -21 -144 -34 -153 -47 -21 -28 -80
-219 -98 -318 -20 -106 -13 -122 45 -106 63 17 882 190 901 190 19 0 19 -10
17 -232 l-3 -233 -80 -17 c-44 -10 -145 -32 -225 -48 -80 -17 -185 -39 -235
-50 -49 -11 -178 -38 -285 -60 -107 -22 -201 -44 -209 -48 -33 -18 -111 -285
-111 -379 0 -35 4 -63 8 -63 5 0 251 52 548 115 296 63 546 115 554 115 29 0
118 48 159 86 47 42 271 370 289 423 8 22 12 115 12 262 0 126 2 229 5 229 2
0 79 16 171 35 91 19 170 35 175 35 5 0 9 -162 9 -389 0 -215 3 -392 8 -394
10 -6 1252 259 1262 270 4 4 27 67 51 138 33 102 44 149 47 218 4 71 2 86 -9
82 -13 -5 -246 -55 -722 -155 -104 -22 -197 -40 -208 -40 -18 0 -19 8 -19 179
0 163 2 180 18 185 23 6 165 37 427 91 379 78 397 83 412 98 9 8 35 77 59 154
34 109 43 153 44 212 0 57 -3 72 -13 68 -8 -3 -103 -24 -213 -46 -109 -23
-228 -48 -264 -56 -151 -34 -444 -95 -457 -95 -11 0 -13 120 -13 704 0 458 -3
707 -10 711 -18 11 -193 -118 -298 -220 l-102 -100 0 -390 c-1 -214 0 -481 0
-592 l1 -201 -33 -10 c-18 -6 -60 -16 -93 -22 -33 -6 -97 -20 -142 -31 -45
-10 -84 -19 -87 -19 -3 0 -6 398 -6 885 l0 885 -27 0 c-18 -1 -59 -22 -108
-57z"/>
<path d="M3140 669 c-269 -59 -733 -158 -939 -200 -80 -16 -150 -34 -157 -40
-15 -13 -89 -243 -103 -323 -19 -102 -17 -106 32 -106 23 0 60 5 82 10 43 11
684 149 953 205 90 19 171 39 182 45 18 10 50 93 90 240 23 85 27 200 8 199
-7 0 -74 -14 -148 -30z"/>
</g>
</svg>
